<svg width="812" height="131" viewBox="0 0 812 131" fill="none" xmlns="http://www.w3.org/2000/svg">
<g filter="url(#filter0_d_3_801)">
<path d="M80.365 118.152C64.7005 123.849 49.4388 124.395 34.3908 117.483C11.4079 106.926 2.2926 81.7495 4.26003 60.7874C5.40171 48.6232 9.07567 37.3062 16.7885 27.6342C31.6115 9.04581 51.4514 3.8718 73.6364 8.76425C93.9384 13.2414 106.523 27.0539 111.576 47.1128C118.418 74.2726 108.088 105.488 80.365 118.152ZM89.1986 80.2855C90.2703 74.165 90.1208 67.9648 89.597 61.8596C88.488 48.935 85.7631 36.4995 76.1941 26.7223C62.1731 12.3963 42.7151 15.7122 34.1059 33.8293C28.4294 45.7751 28.7442 58.3946 29.9111 71.019C30.8255 80.9124 33.8417 90.2602 40.1234 98.2031C47.0957 107.02 56.0164 112.03 67.5082 110.089C78.7285 108.195 84.3124 100.15 87.311 89.9402C88.1486 87.0883 88.4897 84.0907 89.1986 80.2855Z" fill="url(#paint0_linear_3_801)" style="mix-blend-mode:luminosity" shape-rendering="crispEdges"/>
</g>
<g filter="url(#filter1_d_3_801)">
<path d="M660.816 96.5366C658.382 80.0085 660.546 64.8108 670.528 51.5231C678.178 41.3388 688.947 37.6904 701.355 38.6928C707.82 39.2152 708.741 38.6496 708.771 32.2857C708.79 28.2884 708.834 24.2886 708.722 20.2941C708.556 14.336 706.623 11.6203 701.037 10.1645C698.642 9.54022 696.915 8.80694 697.005 6.07635C697.097 3.30212 699.42 3.11938 701.311 2.82531C707.717 1.82891 714.133 0.860285 720.576 0.152704C727.722 -0.632025 730.109 1.52123 730.124 8.6264C730.178 34.4423 730.151 60.2584 730.18 86.0745C730.184 90.0709 730.394 94.0674 730.375 98.0633C730.353 102.756 732.447 105.563 737.141 106.483C739.042 106.855 741.297 107.103 741.76 109.604C742.24 112.193 740.464 113.631 738.587 114.765C733.248 117.99 727.425 119.996 721.252 120.734C718.162 121.103 715.136 120.156 713.296 117.471C710.677 113.649 707.841 113.859 704.382 116.17C699.735 119.274 694.69 121.089 688.955 121.182C673.797 121.43 665.149 114.086 660.816 96.5366ZM708.778 97.4371C708.759 85.2923 708.798 73.1471 708.696 61.003C708.646 55.0896 705.948 51.4075 701.069 50.0715C694.232 48.1998 687.837 50.8787 684.757 57.3151C680.863 65.455 679.674 74.0918 680.816 83.0569C681.602 89.2252 683.005 95.1612 686.824 100.259C690.33 104.939 695.193 106.052 700.615 105.2C704.624 104.57 707.891 102.777 708.778 97.4371Z" fill="url(#paint1_linear_3_801)" style="mix-blend-mode:luminosity" shape-rendering="crispEdges"/>
</g>
<g filter="url(#filter2_d_3_801)">
<path d="M288.763 98.3848C288.514 85.2582 288.162 72.6026 288.095 59.9456C288.07 55.4091 286.721 52.2281 282.146 50.7876C279.71 50.0209 277.429 48.9448 277.627 45.683C277.848 42.0448 280.811 42.269 283.117 41.8469C288.675 40.8299 294.278 40.0638 299.853 39.1366C306.965 37.9537 309.248 39.8486 309.289 47.2301C309.358 59.5592 309.269 71.89 309.451 84.2171C309.51 88.1902 309.963 92.1991 310.674 96.112C311.944 103.101 316.868 106.257 324.76 105.525C331.747 104.876 336.703 100.217 336.759 93.9056C336.857 82.9083 336.754 71.9093 336.778 60.9112C336.788 56.1077 335.208 52.4889 330.183 51.0152C327.63 50.2663 325.502 48.8837 325.994 45.7228C326.458 42.7426 328.847 42.5422 331.266 42.22C337.857 41.3418 344.402 40.0561 351.012 39.4082C356.278 38.8921 357.905 40.8727 357.853 46.0138C357.686 62.4948 357.477 78.9775 357.565 95.4579C357.597 101.401 357.456 107.807 365.518 109.552C367.141 109.904 368.021 111.731 368.082 113.523C368.149 115.475 366.861 116.623 365.214 117.197C358.92 119.388 352.611 121.426 345.766 121.017C340.787 120.72 338.893 116.905 336.676 113.494C334.014 113.293 332.665 115.226 331.017 116.486C324.213 121.684 316.46 123.037 308.295 121.607C296.898 119.612 290.092 111.426 288.763 98.3848Z" fill="url(#paint2_linear_3_801)" style="mix-blend-mode:luminosity" shape-rendering="crispEdges"/>
</g>
<g filter="url(#filter3_d_3_801)">
<path d="M471.587 22.5378C466.355 21.831 461.526 21.9798 456.709 22.1972C452.178 22.4015 449.611 24.8403 449.531 29.4486C449.376 38.4383 449.369 47.4306 449.233 56.4209C449.186 59.4941 450.549 61.2085 453.624 61.2001C458.104 61.1879 462.569 61.4076 467.068 60.7886C473.09 59.9601 477.394 57.4117 479.168 51.3126C479.721 49.4151 480.884 47.9862 483.187 48.539C485.289 49.0433 485.384 50.8171 485.4 52.5042C485.484 61.4945 485.536 70.4852 485.587 79.4758C485.599 81.5148 484.834 83.1877 482.684 83.5301C480.516 83.875 479.341 82.5436 478.785 80.5276C477.14 74.556 472.543 71.9926 467 71.2233C462.576 70.6093 458.031 70.8418 453.539 70.7588C450.646 70.7053 449.32 72.2124 449.343 75.0962C449.416 84.2538 449.315 93.415 449.538 102.568C449.644 106.931 452.159 109.589 456.569 110.326C458.206 110.599 459.841 110.936 461.444 111.368C463.759 111.991 464.52 113.668 464.354 115.94C464.191 118.171 462.782 119.22 460.807 119.464C459.003 119.687 457.145 119.733 455.334 119.583C444.197 118.658 433.057 118.878 421.916 119.414C419.208 119.544 416.784 119.202 416.059 116.102C415.273 112.743 417.223 111.054 420.194 110.484C423.894 109.773 425.273 107.505 425.916 103.963C427.088 97.4991 426.816 91.0144 426.748 84.5401C426.556 66.2339 427.294 47.9209 426.162 29.6172C425.877 25.0205 423.923 22.1659 419.891 20.3644C417.562 19.3235 415.169 18.1664 416.061 14.8876C416.922 11.7275 419.723 11.6873 422.144 11.6866C426.629 11.6853 431.113 12.238 435.599 12.2615C455.402 12.3657 475.214 13.1388 495.001 11.6353C497.824 11.4208 499.453 12.5771 499.435 15.6131C499.395 22.2733 499.422 28.9341 499.364 35.594C499.347 37.585 498.562 39.2771 496.43 39.686C494.08 40.1369 493.175 38.4844 492.704 36.5658C490.028 25.6471 482.159 22.4331 471.587 22.5378Z" fill="url(#paint3_linear_3_801)" style="mix-blend-mode:luminosity" shape-rendering="crispEdges"/>
</g>
<g filter="url(#filter4_d_3_801)">
<path d="M197.258 96.5109C190.512 112.561 178.759 121.068 161.691 121.247C145.917 121.413 133.1 115.717 125.837 100.72C117.699 83.9126 123.014 57.2424 137.361 46.2789C150.754 36.0441 165.751 35.7081 180.787 42.2051C194.498 48.1295 199.072 60.282 200.281 74.0534C200.94 81.5624 200 88.992 197.258 96.5109ZM147.367 57.5072C142.294 71.9822 143.082 86.3053 149.061 100.263C151.703 106.433 156.343 110.709 163.707 110.257C170.911 109.814 174.465 104.882 176.675 98.783C179.945 89.7638 179.342 80.4662 178.112 71.1882C177.288 64.9646 175.168 59.2727 170.825 54.5484C163.275 46.3353 153.451 47.2823 147.367 57.5072Z" fill="url(#paint4_linear_3_801)" style="mix-blend-mode:luminosity" shape-rendering="crispEdges"/>
</g>
<g filter="url(#filter5_d_3_801)">
<path d="M653.647 91.8682C645.917 120.118 618.576 126.443 597.87 117.44C589.416 113.764 584.043 107.048 581.447 98.3355C576.946 83.2273 578.472 68.5919 586.447 54.9709C594.41 41.3717 608.856 35.9716 626.869 39.2411C641.663 41.9262 651.493 51.9802 654.384 67.2318C655.927 75.3736 655.868 83.4409 653.647 91.8682ZM623.718 52.45C614.531 45.944 605.845 48.9513 602.569 59.9664C599.56 70.0805 599.843 80.3269 602.082 90.555C603.045 94.9527 604.307 99.2508 606.698 103.143C609.615 107.893 613.53 110.865 619.388 110.307C625.073 109.766 628.903 106.517 631.17 101.488C635.249 92.4421 634.487 82.9338 633.189 73.5064C632.139 65.8836 630.465 58.3769 623.718 52.45Z" fill="url(#paint5_linear_3_801)" style="mix-blend-mode:luminosity" shape-rendering="crispEdges"/>
</g>
<g filter="url(#filter6_d_3_801)">
<path d="M513.515 44.9067C532.169 33.317 556.386 37.1594 567.562 53.2164C583.833 76.5921 570.102 114.194 543.065 120.3C515.633 126.496 492.815 105.132 497.165 77.2854C499.103 64.8782 502.532 53.1795 513.515 44.9067ZM532.757 109.8C541.346 111.242 547.659 108.382 550.248 100.496C555.052 85.8665 554.203 71.3036 547.043 57.5225C543.992 51.6499 538.713 48.3302 531.868 49.0983C525.122 49.8554 521.975 54.8905 520.441 60.7957C516.952 74.2263 517.843 87.452 523.377 100.239C525.133 104.297 527.87 107.608 532.757 109.8Z" fill="url(#paint6_linear_3_801)" style="mix-blend-mode:luminosity" shape-rendering="crispEdges"/>
</g>
<g filter="url(#filter7_d_3_801)">
<path d="M749.058 96.0617C749.758 93.9693 749.887 91.7435 752.26 91.6495C754.936 91.5435 755.168 93.9364 755.819 95.7678C759.94 107.366 770.611 112.997 781.284 109.263C784.689 108.072 787.21 106.111 787.662 102.355C788.133 98.4461 786.225 95.5753 783.032 93.6038C781.349 92.5647 779.423 91.9152 777.596 91.1149C772.563 88.9109 767.384 86.9914 762.517 84.4685C751.975 79.003 747.771 69.0252 750.602 57.09C753.273 45.834 761.956 38.8275 773.427 38.261C781.883 37.8433 789.995 39.3053 798.024 41.7128C800.913 42.5791 802.615 44.0954 802.46 47.3892C802.281 51.2149 802.404 55.0539 802.337 58.8861C802.307 60.6414 801.795 62.2735 799.944 62.883C797.75 63.6054 796.465 62.1527 795.508 60.5247C793.243 56.6711 791.589 52.4029 787.211 50.1908C783.677 48.4049 780.084 47.3137 776.172 48.4905C772.079 49.7218 768.933 52.0371 768.49 56.6671C768.03 61.4688 770.517 64.6247 774.714 66.4432C780.977 69.1571 787.319 71.6904 793.628 74.2993C810.823 81.4109 810.928 103.967 797.606 114.178C784.26 124.408 762.803 122.607 750.011 116.116C747.425 114.804 746.756 112.653 747.215 109.827C747.934 105.399 748.395 100.928 749.058 96.0617Z" fill="url(#paint7_linear_3_801)" style="mix-blend-mode:luminosity" shape-rendering="crispEdges"/>
</g>
<g filter="url(#filter8_d_3_801)">
<path d="M217.573 57.6179C216.203 54.3974 213.715 53.1149 211.031 52.0462C209.007 51.2405 207.667 49.9193 207.888 47.5191C208.107 45.1471 209.638 43.9705 211.744 43.5324C218.584 42.1093 225.426 40.6772 232.302 39.4473C236.41 38.7127 238.976 40.2229 239.499 44.8059C240.037 49.5338 241.288 49.9187 245.085 46.5857C250.081 42.201 255.218 38.5578 262.42 39.2003C270.843 39.9518 275.256 46.1847 272.636 54.2088C272.019 56.0971 271.138 57.9155 270.226 59.6874C266.983 65.986 265.34 66.2661 259.979 61.5637C255.676 57.7887 250.908 56.882 245.631 59.291C240.7 61.5418 239.261 65.578 239.422 70.7259C239.746 81.0299 239.9 91.3411 239.968 101.65C240.002 106.725 241.538 110.384 247.056 111.494C249.37 111.96 250.96 113.582 250.806 116.117C250.619 119.223 248.066 118.892 245.947 119.119C235.482 120.24 224.978 119.658 214.492 119.802C211.968 119.836 209.253 119.459 208.855 116.146C208.472 112.961 210.672 111.855 213.284 111.109C217.379 109.94 219.024 107.289 218.855 102.913C218.277 87.9468 219.585 72.9314 217.573 57.6179Z" fill="url(#paint8_linear_3_801)" style="mix-blend-mode:luminosity" shape-rendering="crispEdges"/>
</g>
<defs>
<filter id="filter0_d_3_801" x="0" y="7.02625" width="117.619" height="123.52" filterUnits="userSpaceOnUse" color-interpolation-filters="sRGB">
<feFlood flood-opacity="0" result="BackgroundImageFix"/>
<feColorMatrix in="SourceAlpha" type="matrix" values="0 0 0 0 0 0 0 0 0 0 0 0 0 0 0 0 0 0 127 0" result="hardAlpha"/>
<feOffset dy="4"/>
<feGaussianBlur stdDeviation="2"/>
<feComposite in2="hardAlpha" operator="out"/>
<feColorMatrix type="matrix" values="0 0 0 0 0 0 0 0 0 0 0 0 0 0 0 0 0 0 0.25 0"/>
<feBlend mode="normal" in2="BackgroundImageFix" result="effect1_dropShadow_3_801"/>
<feBlend mode="normal" in="SourceGraphic" in2="effect1_dropShadow_3_801" result="shape"/>
</filter>
<filter id="filter1_d_3_801" x="655.902" y="0" width="89.9372" height="129.188" filterUnits="userSpaceOnUse" color-interpolation-filters="sRGB">
<feFlood flood-opacity="0" result="BackgroundImageFix"/>
<feColorMatrix in="SourceAlpha" type="matrix" values="0 0 0 0 0 0 0 0 0 0 0 0 0 0 0 0 0 0 127 0" result="hardAlpha"/>
<feOffset dy="4"/>
<feGaussianBlur stdDeviation="2"/>
<feComposite in2="hardAlpha" operator="out"/>
<feColorMatrix type="matrix" values="0 0 0 0 0 0 0 0 0 0 0 0 0 0 0 0 0 0 0.25 0"/>
<feBlend mode="normal" in2="BackgroundImageFix" result="effect1_dropShadow_3_801"/>
<feBlend mode="normal" in="SourceGraphic" in2="effect1_dropShadow_3_801" result="shape"/>
</filter>
<filter id="filter2_d_3_801" x="273.615" y="38.811" width="98.4696" height="91.3302" filterUnits="userSpaceOnUse" color-interpolation-filters="sRGB">
<feFlood flood-opacity="0" result="BackgroundImageFix"/>
<feColorMatrix in="SourceAlpha" type="matrix" values="0 0 0 0 0 0 0 0 0 0 0 0 0 0 0 0 0 0 127 0" result="hardAlpha"/>
<feOffset dy="4"/>
<feGaussianBlur stdDeviation="2"/>
<feComposite in2="hardAlpha" operator="out"/>
<feColorMatrix type="matrix" values="0 0 0 0 0 0 0 0 0 0 0 0 0 0 0 0 0 0 0.25 0"/>
<feBlend mode="normal" in2="BackgroundImageFix" result="effect1_dropShadow_3_801"/>
<feBlend mode="normal" in="SourceGraphic" in2="effect1_dropShadow_3_801" result="shape"/>
</filter>
<filter id="filter3_d_3_801" x="411.87" y="11.6104" width="91.565" height="116.06" filterUnits="userSpaceOnUse" color-interpolation-filters="sRGB">
<feFlood flood-opacity="0" result="BackgroundImageFix"/>
<feColorMatrix in="SourceAlpha" type="matrix" values="0 0 0 0 0 0 0 0 0 0 0 0 0 0 0 0 0 0 127 0" result="hardAlpha"/>
<feOffset dy="4"/>
<feGaussianBlur stdDeviation="2"/>
<feComposite in2="hardAlpha" operator="out"/>
<feColorMatrix type="matrix" values="0 0 0 0 0 0 0 0 0 0 0 0 0 0 0 0 0 0 0.25 0"/>
<feBlend mode="normal" in2="BackgroundImageFix" result="effect1_dropShadow_3_801"/>
<feBlend mode="normal" in="SourceGraphic" in2="effect1_dropShadow_3_801" result="shape"/>
</filter>
<filter id="filter4_d_3_801" x="118.012" y="37.8577" width="86.4704" height="91.3932" filterUnits="userSpaceOnUse" color-interpolation-filters="sRGB">
<feFlood flood-opacity="0" result="BackgroundImageFix"/>
<feColorMatrix in="SourceAlpha" type="matrix" values="0 0 0 0 0 0 0 0 0 0 0 0 0 0 0 0 0 0 127 0" result="hardAlpha"/>
<feOffset dy="4"/>
<feGaussianBlur stdDeviation="2"/>
<feComposite in2="hardAlpha" operator="out"/>
<feColorMatrix type="matrix" values="0 0 0 0 0 0 0 0 0 0 0 0 0 0 0 0 0 0 0.25 0"/>
<feBlend mode="normal" in2="BackgroundImageFix" result="effect1_dropShadow_3_801"/>
<feBlend mode="normal" in="SourceGraphic" in2="effect1_dropShadow_3_801" result="shape"/>
</filter>
<filter id="filter5_d_3_801" x="574.948" y="38.3132" width="84.4955" height="90.9394" filterUnits="userSpaceOnUse" color-interpolation-filters="sRGB">
<feFlood flood-opacity="0" result="BackgroundImageFix"/>
<feColorMatrix in="SourceAlpha" type="matrix" values="0 0 0 0 0 0 0 0 0 0 0 0 0 0 0 0 0 0 127 0" result="hardAlpha"/>
<feOffset dy="4"/>
<feGaussianBlur stdDeviation="2"/>
<feComposite in2="hardAlpha" operator="out"/>
<feColorMatrix type="matrix" values="0 0 0 0 0 0 0 0 0 0 0 0 0 0 0 0 0 0 0.25 0"/>
<feBlend mode="normal" in2="BackgroundImageFix" result="effect1_dropShadow_3_801"/>
<feBlend mode="normal" in="SourceGraphic" in2="effect1_dropShadow_3_801" result="shape"/>
</filter>
<filter id="filter6_d_3_801" x="492.63" y="38.1974" width="85.9272" height="91.1792" filterUnits="userSpaceOnUse" color-interpolation-filters="sRGB">
<feFlood flood-opacity="0" result="BackgroundImageFix"/>
<feColorMatrix in="SourceAlpha" type="matrix" values="0 0 0 0 0 0 0 0 0 0 0 0 0 0 0 0 0 0 127 0" result="hardAlpha"/>
<feOffset dy="4"/>
<feGaussianBlur stdDeviation="2"/>
<feComposite in2="hardAlpha" operator="out"/>
<feColorMatrix type="matrix" values="0 0 0 0 0 0 0 0 0 0 0 0 0 0 0 0 0 0 0.25 0"/>
<feBlend mode="normal" in2="BackgroundImageFix" result="effect1_dropShadow_3_801"/>
<feBlend mode="normal" in="SourceGraphic" in2="effect1_dropShadow_3_801" result="shape"/>
</filter>
<filter id="filter7_d_3_801" x="743.081" y="38.1901" width="68.0313" height="91.2276" filterUnits="userSpaceOnUse" color-interpolation-filters="sRGB">
<feFlood flood-opacity="0" result="BackgroundImageFix"/>
<feColorMatrix in="SourceAlpha" type="matrix" values="0 0 0 0 0 0 0 0 0 0 0 0 0 0 0 0 0 0 127 0" result="hardAlpha"/>
<feOffset dy="4"/>
<feGaussianBlur stdDeviation="2"/>
<feComposite in2="hardAlpha" operator="out"/>
<feColorMatrix type="matrix" values="0 0 0 0 0 0 0 0 0 0 0 0 0 0 0 0 0 0 0.25 0"/>
<feBlend mode="normal" in2="BackgroundImageFix" result="effect1_dropShadow_3_801"/>
<feBlend mode="normal" in="SourceGraphic" in2="effect1_dropShadow_3_801" result="shape"/>
</filter>
<filter id="filter8_d_3_801" x="203.864" y="39.1265" width="73.5242" height="88.7016" filterUnits="userSpaceOnUse" color-interpolation-filters="sRGB">
<feFlood flood-opacity="0" result="BackgroundImageFix"/>
<feColorMatrix in="SourceAlpha" type="matrix" values="0 0 0 0 0 0 0 0 0 0 0 0 0 0 0 0 0 0 127 0" result="hardAlpha"/>
<feOffset dy="4"/>
<feGaussianBlur stdDeviation="2"/>
<feComposite in2="hardAlpha" operator="out"/>
<feColorMatrix type="matrix" values="0 0 0 0 0 0 0 0 0 0 0 0 0 0 0 0 0 0 0.25 0"/>
<feBlend mode="normal" in2="BackgroundImageFix" result="effect1_dropShadow_3_801"/>
<feBlend mode="normal" in="SourceGraphic" in2="effect1_dropShadow_3_801" result="shape"/>
</filter>
<linearGradient id="paint0_linear_3_801" x1="58.8094" y1="7.02625" x2="58.8094" y2="122.546" gradientUnits="userSpaceOnUse">
<stop stop-color="#FF2222"/>
<stop offset="1" stop-color="#AC0909"/>
</linearGradient>
<linearGradient id="paint1_linear_3_801" x1="700.871" y1="0" x2="700.871" y2="121.188" gradientUnits="userSpaceOnUse">
<stop stop-color="#FF2222"/>
<stop offset="1" stop-color="#AC0909"/>
</linearGradient>
<linearGradient id="paint2_linear_3_801" x1="322.85" y1="38.811" x2="322.85" y2="122.141" gradientUnits="userSpaceOnUse">
<stop stop-color="#FF2222"/>
<stop offset="1" stop-color="#AC0909"/>
</linearGradient>
<linearGradient id="paint3_linear_3_801" x1="457.652" y1="11.6104" x2="457.652" y2="119.67" gradientUnits="userSpaceOnUse">
<stop stop-color="#FF2222"/>
<stop offset="1" stop-color="#AC0909"/>
</linearGradient>
<linearGradient id="paint4_linear_3_801" x1="161.248" y1="37.8577" x2="161.248" y2="121.251" gradientUnits="userSpaceOnUse">
<stop stop-color="#FF2222"/>
<stop offset="1" stop-color="#AC0909"/>
</linearGradient>
<linearGradient id="paint5_linear_3_801" x1="617.195" y1="38.3132" x2="617.195" y2="121.253" gradientUnits="userSpaceOnUse">
<stop stop-color="#FF2222"/>
<stop offset="1" stop-color="#AC0909"/>
</linearGradient>
<linearGradient id="paint6_linear_3_801" x1="535.594" y1="38.1974" x2="535.594" y2="121.377" gradientUnits="userSpaceOnUse">
<stop stop-color="#FF2222"/>
<stop offset="1" stop-color="#AC0909"/>
</linearGradient>
<linearGradient id="paint7_linear_3_801" x1="777.097" y1="38.1901" x2="777.097" y2="121.418" gradientUnits="userSpaceOnUse">
<stop stop-color="#FF2222"/>
<stop offset="1" stop-color="#AC0909"/>
</linearGradient>
<linearGradient id="paint8_linear_3_801" x1="240.627" y1="39.1265" x2="240.627" y2="119.828" gradientUnits="userSpaceOnUse">
<stop stop-color="#FF2222"/>
<stop offset="1" stop-color="#AC0909"/>
</linearGradient>
</defs>
</svg>
